<?xml version="1.0" encoding="UTF-8" standalone="no"?>
<!DOCTYPE svg PUBLIC "-//W3C//DTD SVG 1.1//EN"
 "http://www.w3.org/Graphics/SVG/1.1/DTD/svg11.dtd">
<!-- Generated by graphviz version 7.1.0 (0)
 -->
<!-- Pages: 1 -->
<svg width="2454pt" height="404pt"
 viewBox="0.00 0.00 2454.00 404.00" xmlns="http://www.w3.org/2000/svg" xmlns:xlink="http://www.w3.org/1999/xlink">
<g id="graph0" class="graph" transform="scale(1 1) rotate(0) translate(4 400)">
<polygon fill="white" stroke="none" points="-4,4 -4,-400 2450,-400 2450,4 -4,4"/>
<!-- 1/1 -->
<g id="node1" class="node">
<title>1/1</title>
<ellipse fill="none" stroke="black" cx="1343" cy="-378" rx="27" ry="18"/>
<text text-anchor="middle" x="1343" y="-374.3" font-family="Times,serif" font-size="14.00">1/1</text>
</g>
<!-- 1/2 -->
<g id="node2" class="node">
<title>1/2</title>
<ellipse fill="none" stroke="black" cx="919" cy="-306" rx="27" ry="18"/>
<text text-anchor="middle" x="919" y="-302.3" font-family="Times,serif" font-size="14.00">1/2</text>
</g>
<!-- 1/1&#45;&gt;1/2 -->
<g id="edge1" class="edge">
<title>1/1&#45;&gt;1/2</title>
<path fill="none" stroke="black" d="M1316.8,-372.67C1244.36,-360.72 1041.19,-327.17 956.65,-313.22"/>
<polygon fill="black" stroke="black" points="957.23,-309.76 946.79,-311.59 956.09,-316.67 957.23,-309.76"/>
</g>
<!-- 2/1 -->
<g id="node3" class="node">
<title>2/1</title>
<ellipse fill="none" stroke="black" cx="1527" cy="-306" rx="27" ry="18"/>
<text text-anchor="middle" x="1527" y="-302.3" font-family="Times,serif" font-size="14.00">2/1</text>
</g>
<!-- 1/1&#45;&gt;2/1 -->
<g id="edge2" class="edge">
<title>1/1&#45;&gt;2/1</title>
<path fill="none" stroke="black" d="M1365.93,-368.28C1397.89,-356.12 1456.04,-334 1493.03,-319.92"/>
<polygon fill="black" stroke="black" points="1494.26,-323.2 1502.36,-316.37 1491.77,-316.66 1494.26,-323.2"/>
</g>
<!-- 1/3 -->
<g id="node4" class="node">
<title>1/3</title>
<ellipse fill="none" stroke="black" cx="455" cy="-234" rx="27" ry="18"/>
<text text-anchor="middle" x="455" y="-230.3" font-family="Times,serif" font-size="14.00">1/3</text>
</g>
<!-- 1/2&#45;&gt;1/3 -->
<g id="edge3" class="edge">
<title>1/2&#45;&gt;1/3</title>
<path fill="none" stroke="black" d="M892.72,-301.04C814.58,-289.25 583.41,-254.37 492.41,-240.64"/>
<polygon fill="black" stroke="black" points="493.18,-237.22 482.77,-239.19 492.14,-244.14 493.18,-237.22"/>
</g>
<!-- 2/3 -->
<g id="node5" class="node">
<title>2/3</title>
<ellipse fill="none" stroke="black" cx="919" cy="-234" rx="27" ry="18"/>
<text text-anchor="middle" x="919" y="-230.3" font-family="Times,serif" font-size="14.00">2/3</text>
</g>
<!-- 1/2&#45;&gt;2/3 -->
<g id="edge4" class="edge">
<title>1/2&#45;&gt;2/3</title>
<path fill="none" stroke="black" d="M919,-287.7C919,-280.41 919,-271.73 919,-263.54"/>
<polygon fill="black" stroke="black" points="922.5,-263.62 919,-253.62 915.5,-263.62 922.5,-263.62"/>
</g>
<!-- 3/2 -->
<g id="node34" class="node">
<title>3/2</title>
<ellipse fill="none" stroke="black" cx="1527" cy="-234" rx="27" ry="18"/>
<text text-anchor="middle" x="1527" y="-230.3" font-family="Times,serif" font-size="14.00">3/2</text>
</g>
<!-- 2/1&#45;&gt;3/2 -->
<g id="edge33" class="edge">
<title>2/1&#45;&gt;3/2</title>
<path fill="none" stroke="black" d="M1527,-287.7C1527,-280.41 1527,-271.73 1527,-263.54"/>
<polygon fill="black" stroke="black" points="1530.5,-263.62 1527,-253.62 1523.5,-263.62 1530.5,-263.62"/>
</g>
<!-- 3/1 -->
<g id="node35" class="node">
<title>3/1</title>
<ellipse fill="none" stroke="black" cx="1991" cy="-234" rx="27" ry="18"/>
<text text-anchor="middle" x="1991" y="-230.3" font-family="Times,serif" font-size="14.00">3/1</text>
</g>
<!-- 2/1&#45;&gt;3/1 -->
<g id="edge34" class="edge">
<title>2/1&#45;&gt;3/1</title>
<path fill="none" stroke="black" d="M1553.28,-301.04C1631.42,-289.25 1862.59,-254.37 1953.59,-240.64"/>
<polygon fill="black" stroke="black" points="1953.86,-244.14 1963.23,-239.19 1952.82,-237.22 1953.86,-244.14"/>
</g>
<!-- 1/4 -->
<g id="node6" class="node">
<title>1/4</title>
<ellipse fill="none" stroke="black" cx="215" cy="-162" rx="27" ry="18"/>
<text text-anchor="middle" x="215" y="-158.3" font-family="Times,serif" font-size="14.00">1/4</text>
</g>
<!-- 1/3&#45;&gt;1/4 -->
<g id="edge5" class="edge">
<title>1/3&#45;&gt;1/4</title>
<path fill="none" stroke="black" d="M430.67,-225.9C387.99,-213.46 299.51,-187.65 250.17,-173.26"/>
<polygon fill="black" stroke="black" points="251.43,-169.98 240.85,-170.54 249.47,-176.7 251.43,-169.98"/>
</g>
<!-- 2/5 -->
<g id="node7" class="node">
<title>2/5</title>
<ellipse fill="none" stroke="black" cx="455" cy="-162" rx="27" ry="18"/>
<text text-anchor="middle" x="455" y="-158.3" font-family="Times,serif" font-size="14.00">2/5</text>
</g>
<!-- 1/3&#45;&gt;2/5 -->
<g id="edge6" class="edge">
<title>1/3&#45;&gt;2/5</title>
<path fill="none" stroke="black" d="M455,-215.7C455,-208.41 455,-199.73 455,-191.54"/>
<polygon fill="black" stroke="black" points="458.5,-191.62 455,-181.62 451.5,-191.62 458.5,-191.62"/>
</g>
<!-- 3/5 -->
<g id="node20" class="node">
<title>3/5</title>
<ellipse fill="none" stroke="black" cx="839" cy="-162" rx="27" ry="18"/>
<text text-anchor="middle" x="839" y="-158.3" font-family="Times,serif" font-size="14.00">3/5</text>
</g>
<!-- 2/3&#45;&gt;3/5 -->
<g id="edge19" class="edge">
<title>2/3&#45;&gt;3/5</title>
<path fill="none" stroke="black" d="M903.19,-219.17C891.8,-209.2 876.21,-195.56 863.24,-184.21"/>
<polygon fill="black" stroke="black" points="865.74,-181.75 855.91,-177.8 861.13,-187.02 865.74,-181.75"/>
</g>
<!-- 3/4 -->
<g id="node21" class="node">
<title>3/4</title>
<ellipse fill="none" stroke="black" cx="999" cy="-162" rx="27" ry="18"/>
<text text-anchor="middle" x="999" y="-158.3" font-family="Times,serif" font-size="14.00">3/4</text>
</g>
<!-- 2/3&#45;&gt;3/4 -->
<g id="edge20" class="edge">
<title>2/3&#45;&gt;3/4</title>
<path fill="none" stroke="black" d="M934.81,-219.17C946.2,-209.2 961.79,-195.56 974.76,-184.21"/>
<polygon fill="black" stroke="black" points="976.87,-187.02 982.09,-177.8 972.26,-181.75 976.87,-187.02"/>
</g>
<!-- 1/5 -->
<g id="node8" class="node">
<title>1/5</title>
<ellipse fill="none" stroke="black" cx="99" cy="-90" rx="27" ry="18"/>
<text text-anchor="middle" x="99" y="-86.3" font-family="Times,serif" font-size="14.00">1/5</text>
</g>
<!-- 1/4&#45;&gt;1/5 -->
<g id="edge7" class="edge">
<title>1/4&#45;&gt;1/5</title>
<path fill="none" stroke="black" d="M195.32,-149.13C176.88,-138 149.08,-121.22 128.08,-108.55"/>
<polygon fill="black" stroke="black" points="130.05,-105.65 119.68,-103.48 126.44,-111.64 130.05,-105.65"/>
</g>
<!-- 2/7 -->
<g id="node9" class="node">
<title>2/7</title>
<ellipse fill="none" stroke="black" cx="215" cy="-90" rx="27" ry="18"/>
<text text-anchor="middle" x="215" y="-86.3" font-family="Times,serif" font-size="14.00">2/7</text>
</g>
<!-- 1/4&#45;&gt;2/7 -->
<g id="edge8" class="edge">
<title>1/4&#45;&gt;2/7</title>
<path fill="none" stroke="black" d="M215,-143.7C215,-136.41 215,-127.73 215,-119.54"/>
<polygon fill="black" stroke="black" points="218.5,-119.62 215,-109.62 211.5,-119.62 218.5,-119.62"/>
</g>
<!-- 3/8 -->
<g id="node14" class="node">
<title>3/8</title>
<ellipse fill="none" stroke="black" cx="415" cy="-90" rx="27" ry="18"/>
<text text-anchor="middle" x="415" y="-86.3" font-family="Times,serif" font-size="14.00">3/8</text>
</g>
<!-- 2/5&#45;&gt;3/8 -->
<g id="edge13" class="edge">
<title>2/5&#45;&gt;3/8</title>
<path fill="none" stroke="black" d="M445.72,-144.76C441.03,-136.55 435.21,-126.37 429.91,-117.09"/>
<polygon fill="black" stroke="black" points="432.98,-115.41 424.98,-108.46 426.9,-118.88 432.98,-115.41"/>
</g>
<!-- 3/7 -->
<g id="node15" class="node">
<title>3/7</title>
<ellipse fill="none" stroke="black" cx="495" cy="-90" rx="27" ry="18"/>
<text text-anchor="middle" x="495" y="-86.3" font-family="Times,serif" font-size="14.00">3/7</text>
</g>
<!-- 2/5&#45;&gt;3/7 -->
<g id="edge14" class="edge">
<title>2/5&#45;&gt;3/7</title>
<path fill="none" stroke="black" d="M464.28,-144.76C468.97,-136.55 474.79,-126.37 480.09,-117.09"/>
<polygon fill="black" stroke="black" points="483.1,-118.88 485.02,-108.46 477.02,-115.41 483.1,-118.88"/>
</g>
<!-- 1/6 -->
<g id="node10" class="node">
<title>1/6</title>
<ellipse fill="none" stroke="black" cx="27" cy="-18" rx="27" ry="18"/>
<text text-anchor="middle" x="27" y="-14.3" font-family="Times,serif" font-size="14.00">1/6</text>
</g>
<!-- 1/5&#45;&gt;1/6 -->
<g id="edge9" class="edge">
<title>1/5&#45;&gt;1/6</title>
<path fill="none" stroke="black" d="M84.08,-74.5C74.23,-64.92 61.14,-52.19 49.97,-41.34"/>
<polygon fill="black" stroke="black" points="52.59,-39 42.98,-34.54 47.71,-44.02 52.59,-39"/>
</g>
<!-- 2/9 -->
<g id="node11" class="node">
<title>2/9</title>
<ellipse fill="none" stroke="black" cx="99" cy="-18" rx="27" ry="18"/>
<text text-anchor="middle" x="99" y="-14.3" font-family="Times,serif" font-size="14.00">2/9</text>
</g>
<!-- 1/5&#45;&gt;2/9 -->
<g id="edge10" class="edge">
<title>1/5&#45;&gt;2/9</title>
<path fill="none" stroke="black" d="M99,-71.7C99,-64.41 99,-55.73 99,-47.54"/>
<polygon fill="black" stroke="black" points="102.5,-47.62 99,-37.62 95.5,-47.62 102.5,-47.62"/>
</g>
<!-- 3/11 -->
<g id="node12" class="node">
<title>3/11</title>
<ellipse fill="none" stroke="black" cx="175" cy="-18" rx="31.4" ry="18"/>
<text text-anchor="middle" x="175" y="-14.3" font-family="Times,serif" font-size="14.00">3/11</text>
</g>
<!-- 2/7&#45;&gt;3/11 -->
<g id="edge11" class="edge">
<title>2/7&#45;&gt;3/11</title>
<path fill="none" stroke="black" d="M205.72,-72.76C201.09,-64.67 195.38,-54.66 190.14,-45.49"/>
<polygon fill="black" stroke="black" points="193.26,-43.89 185.26,-36.95 187.18,-47.37 193.26,-43.89"/>
</g>
<!-- 3/10 -->
<g id="node13" class="node">
<title>3/10</title>
<ellipse fill="none" stroke="black" cx="255" cy="-18" rx="31.4" ry="18"/>
<text text-anchor="middle" x="255" y="-14.3" font-family="Times,serif" font-size="14.00">3/10</text>
</g>
<!-- 2/7&#45;&gt;3/10 -->
<g id="edge12" class="edge">
<title>2/7&#45;&gt;3/10</title>
<path fill="none" stroke="black" d="M224.28,-72.76C228.91,-64.67 234.62,-54.66 239.86,-45.49"/>
<polygon fill="black" stroke="black" points="242.82,-47.37 244.74,-36.95 236.74,-43.89 242.82,-47.37"/>
</g>
<!-- 4/11 -->
<g id="node16" class="node">
<title>4/11</title>
<ellipse fill="none" stroke="black" cx="335" cy="-18" rx="31.4" ry="18"/>
<text text-anchor="middle" x="335" y="-14.3" font-family="Times,serif" font-size="14.00">4/11</text>
</g>
<!-- 3/8&#45;&gt;4/11 -->
<g id="edge15" class="edge">
<title>3/8&#45;&gt;4/11</title>
<path fill="none" stroke="black" d="M399.19,-75.17C388.02,-65.39 372.81,-52.09 360,-40.88"/>
<polygon fill="black" stroke="black" points="362.57,-38.47 352.74,-34.52 357.96,-43.74 362.57,-38.47"/>
</g>
<!-- 5/13 -->
<g id="node17" class="node">
<title>5/13</title>
<ellipse fill="none" stroke="black" cx="415" cy="-18" rx="31.4" ry="18"/>
<text text-anchor="middle" x="415" y="-14.3" font-family="Times,serif" font-size="14.00">5/13</text>
</g>
<!-- 3/8&#45;&gt;5/13 -->
<g id="edge16" class="edge">
<title>3/8&#45;&gt;5/13</title>
<path fill="none" stroke="black" d="M415,-71.7C415,-64.41 415,-55.73 415,-47.54"/>
<polygon fill="black" stroke="black" points="418.5,-47.62 415,-37.62 411.5,-47.62 418.5,-47.62"/>
</g>
<!-- 5/12 -->
<g id="node18" class="node">
<title>5/12</title>
<ellipse fill="none" stroke="black" cx="495" cy="-18" rx="31.4" ry="18"/>
<text text-anchor="middle" x="495" y="-14.3" font-family="Times,serif" font-size="14.00">5/12</text>
</g>
<!-- 3/7&#45;&gt;5/12 -->
<g id="edge17" class="edge">
<title>3/7&#45;&gt;5/12</title>
<path fill="none" stroke="black" d="M495,-71.7C495,-64.41 495,-55.73 495,-47.54"/>
<polygon fill="black" stroke="black" points="498.5,-47.62 495,-37.62 491.5,-47.62 498.5,-47.62"/>
</g>
<!-- 4/9 -->
<g id="node19" class="node">
<title>4/9</title>
<ellipse fill="none" stroke="black" cx="571" cy="-18" rx="27" ry="18"/>
<text text-anchor="middle" x="571" y="-14.3" font-family="Times,serif" font-size="14.00">4/9</text>
</g>
<!-- 3/7&#45;&gt;4/9 -->
<g id="edge18" class="edge">
<title>3/7&#45;&gt;4/9</title>
<path fill="none" stroke="black" d="M510.38,-74.83C520.99,-65.06 535.3,-51.88 547.35,-40.78"/>
<polygon fill="black" stroke="black" points="549.55,-43.52 554.53,-34.17 544.8,-38.37 549.55,-43.52"/>
</g>
<!-- 4/7 -->
<g id="node22" class="node">
<title>4/7</title>
<ellipse fill="none" stroke="black" cx="719" cy="-90" rx="27" ry="18"/>
<text text-anchor="middle" x="719" y="-86.3" font-family="Times,serif" font-size="14.00">4/7</text>
</g>
<!-- 3/5&#45;&gt;4/7 -->
<g id="edge21" class="edge">
<title>3/5&#45;&gt;4/7</title>
<path fill="none" stroke="black" d="M819.18,-149.44C799.99,-138.24 770.64,-121.12 748.66,-108.3"/>
<polygon fill="black" stroke="black" points="750.55,-105.35 740.15,-103.34 747.03,-111.4 750.55,-105.35"/>
</g>
<!-- 5/8 -->
<g id="node23" class="node">
<title>5/8</title>
<ellipse fill="none" stroke="black" cx="839" cy="-90" rx="27" ry="18"/>
<text text-anchor="middle" x="839" y="-86.3" font-family="Times,serif" font-size="14.00">5/8</text>
</g>
<!-- 3/5&#45;&gt;5/8 -->
<g id="edge22" class="edge">
<title>3/5&#45;&gt;5/8</title>
<path fill="none" stroke="black" d="M839,-143.7C839,-136.41 839,-127.73 839,-119.54"/>
<polygon fill="black" stroke="black" points="842.5,-119.62 839,-109.62 835.5,-119.62 842.5,-119.62"/>
</g>
<!-- 5/7 -->
<g id="node28" class="node">
<title>5/7</title>
<ellipse fill="none" stroke="black" cx="999" cy="-90" rx="27" ry="18"/>
<text text-anchor="middle" x="999" y="-86.3" font-family="Times,serif" font-size="14.00">5/7</text>
</g>
<!-- 3/4&#45;&gt;5/7 -->
<g id="edge27" class="edge">
<title>3/4&#45;&gt;5/7</title>
<path fill="none" stroke="black" d="M999,-143.7C999,-136.41 999,-127.73 999,-119.54"/>
<polygon fill="black" stroke="black" points="1002.5,-119.62 999,-109.62 995.5,-119.62 1002.5,-119.62"/>
</g>
<!-- 4/5 -->
<g id="node29" class="node">
<title>4/5</title>
<ellipse fill="none" stroke="black" cx="1115" cy="-90" rx="27" ry="18"/>
<text text-anchor="middle" x="1115" y="-86.3" font-family="Times,serif" font-size="14.00">4/5</text>
</g>
<!-- 3/4&#45;&gt;4/5 -->
<g id="edge28" class="edge">
<title>3/4&#45;&gt;4/5</title>
<path fill="none" stroke="black" d="M1018.68,-149.13C1037.12,-138 1064.92,-121.22 1085.92,-108.55"/>
<polygon fill="black" stroke="black" points="1087.56,-111.64 1094.32,-103.48 1083.95,-105.65 1087.56,-111.64"/>
</g>
<!-- 5/9 -->
<g id="node24" class="node">
<title>5/9</title>
<ellipse fill="none" stroke="black" cx="643" cy="-18" rx="27" ry="18"/>
<text text-anchor="middle" x="643" y="-14.3" font-family="Times,serif" font-size="14.00">5/9</text>
</g>
<!-- 4/7&#45;&gt;5/9 -->
<g id="edge23" class="edge">
<title>4/7&#45;&gt;5/9</title>
<path fill="none" stroke="black" d="M703.62,-74.83C693.01,-65.06 678.7,-51.88 666.65,-40.78"/>
<polygon fill="black" stroke="black" points="669.2,-38.37 659.47,-34.17 664.45,-43.52 669.2,-38.37"/>
</g>
<!-- 7/12 -->
<g id="node25" class="node">
<title>7/12</title>
<ellipse fill="none" stroke="black" cx="719" cy="-18" rx="31.4" ry="18"/>
<text text-anchor="middle" x="719" y="-14.3" font-family="Times,serif" font-size="14.00">7/12</text>
</g>
<!-- 4/7&#45;&gt;7/12 -->
<g id="edge24" class="edge">
<title>4/7&#45;&gt;7/12</title>
<path fill="none" stroke="black" d="M719,-71.7C719,-64.41 719,-55.73 719,-47.54"/>
<polygon fill="black" stroke="black" points="722.5,-47.62 719,-37.62 715.5,-47.62 722.5,-47.62"/>
</g>
<!-- 8/13 -->
<g id="node26" class="node">
<title>8/13</title>
<ellipse fill="none" stroke="black" cx="799" cy="-18" rx="31.4" ry="18"/>
<text text-anchor="middle" x="799" y="-14.3" font-family="Times,serif" font-size="14.00">8/13</text>
</g>
<!-- 5/8&#45;&gt;8/13 -->
<g id="edge25" class="edge">
<title>5/8&#45;&gt;8/13</title>
<path fill="none" stroke="black" d="M829.72,-72.76C825.09,-64.67 819.38,-54.66 814.14,-45.49"/>
<polygon fill="black" stroke="black" points="817.26,-43.89 809.26,-36.95 811.18,-47.37 817.26,-43.89"/>
</g>
<!-- 7/11 -->
<g id="node27" class="node">
<title>7/11</title>
<ellipse fill="none" stroke="black" cx="879" cy="-18" rx="31.4" ry="18"/>
<text text-anchor="middle" x="879" y="-14.3" font-family="Times,serif" font-size="14.00">7/11</text>
</g>
<!-- 5/8&#45;&gt;7/11 -->
<g id="edge26" class="edge">
<title>5/8&#45;&gt;7/11</title>
<path fill="none" stroke="black" d="M848.28,-72.76C852.91,-64.67 858.62,-54.66 863.86,-45.49"/>
<polygon fill="black" stroke="black" points="866.82,-47.37 868.74,-36.95 860.74,-43.89 866.82,-47.37"/>
</g>
<!-- 7/10 -->
<g id="node30" class="node">
<title>7/10</title>
<ellipse fill="none" stroke="black" cx="959" cy="-18" rx="31.4" ry="18"/>
<text text-anchor="middle" x="959" y="-14.3" font-family="Times,serif" font-size="14.00">7/10</text>
</g>
<!-- 5/7&#45;&gt;7/10 -->
<g id="edge29" class="edge">
<title>5/7&#45;&gt;7/10</title>
<path fill="none" stroke="black" d="M989.72,-72.76C985.09,-64.67 979.38,-54.66 974.14,-45.49"/>
<polygon fill="black" stroke="black" points="977.26,-43.89 969.26,-36.95 971.18,-47.37 977.26,-43.89"/>
</g>
<!-- 8/11 -->
<g id="node31" class="node">
<title>8/11</title>
<ellipse fill="none" stroke="black" cx="1039" cy="-18" rx="31.4" ry="18"/>
<text text-anchor="middle" x="1039" y="-14.3" font-family="Times,serif" font-size="14.00">8/11</text>
</g>
<!-- 5/7&#45;&gt;8/11 -->
<g id="edge30" class="edge">
<title>5/7&#45;&gt;8/11</title>
<path fill="none" stroke="black" d="M1008.28,-72.76C1012.91,-64.67 1018.62,-54.66 1023.86,-45.49"/>
<polygon fill="black" stroke="black" points="1026.82,-47.37 1028.74,-36.95 1020.74,-43.89 1026.82,-47.37"/>
</g>
<!-- 7/9 -->
<g id="node32" class="node">
<title>7/9</title>
<ellipse fill="none" stroke="black" cx="1115" cy="-18" rx="27" ry="18"/>
<text text-anchor="middle" x="1115" y="-14.3" font-family="Times,serif" font-size="14.00">7/9</text>
</g>
<!-- 4/5&#45;&gt;7/9 -->
<g id="edge31" class="edge">
<title>4/5&#45;&gt;7/9</title>
<path fill="none" stroke="black" d="M1115,-71.7C1115,-64.41 1115,-55.73 1115,-47.54"/>
<polygon fill="black" stroke="black" points="1118.5,-47.62 1115,-37.62 1111.5,-47.62 1118.5,-47.62"/>
</g>
<!-- 5/6 -->
<g id="node33" class="node">
<title>5/6</title>
<ellipse fill="none" stroke="black" cx="1187" cy="-18" rx="27" ry="18"/>
<text text-anchor="middle" x="1187" y="-14.3" font-family="Times,serif" font-size="14.00">5/6</text>
</g>
<!-- 4/5&#45;&gt;5/6 -->
<g id="edge32" class="edge">
<title>4/5&#45;&gt;5/6</title>
<path fill="none" stroke="black" d="M1129.92,-74.5C1139.77,-64.92 1152.86,-52.19 1164.03,-41.34"/>
<polygon fill="black" stroke="black" points="1166.29,-44.02 1171.02,-34.54 1161.41,-39 1166.29,-44.02"/>
</g>
<!-- 4/3 -->
<g id="node36" class="node">
<title>4/3</title>
<ellipse fill="none" stroke="black" cx="1447" cy="-162" rx="27" ry="18"/>
<text text-anchor="middle" x="1447" y="-158.3" font-family="Times,serif" font-size="14.00">4/3</text>
</g>
<!-- 3/2&#45;&gt;4/3 -->
<g id="edge35" class="edge">
<title>3/2&#45;&gt;4/3</title>
<path fill="none" stroke="black" d="M1511.19,-219.17C1499.8,-209.2 1484.21,-195.56 1471.24,-184.21"/>
<polygon fill="black" stroke="black" points="1473.74,-181.75 1463.91,-177.8 1469.13,-187.02 1473.74,-181.75"/>
</g>
<!-- 5/3 -->
<g id="node37" class="node">
<title>5/3</title>
<ellipse fill="none" stroke="black" cx="1607" cy="-162" rx="27" ry="18"/>
<text text-anchor="middle" x="1607" y="-158.3" font-family="Times,serif" font-size="14.00">5/3</text>
</g>
<!-- 3/2&#45;&gt;5/3 -->
<g id="edge36" class="edge">
<title>3/2&#45;&gt;5/3</title>
<path fill="none" stroke="black" d="M1542.81,-219.17C1554.2,-209.2 1569.79,-195.56 1582.76,-184.21"/>
<polygon fill="black" stroke="black" points="1584.87,-187.02 1590.09,-177.8 1580.26,-181.75 1584.87,-187.02"/>
</g>
<!-- 5/2 -->
<g id="node50" class="node">
<title>5/2</title>
<ellipse fill="none" stroke="black" cx="1991" cy="-162" rx="27" ry="18"/>
<text text-anchor="middle" x="1991" y="-158.3" font-family="Times,serif" font-size="14.00">5/2</text>
</g>
<!-- 3/1&#45;&gt;5/2 -->
<g id="edge49" class="edge">
<title>3/1&#45;&gt;5/2</title>
<path fill="none" stroke="black" d="M1991,-215.7C1991,-208.41 1991,-199.73 1991,-191.54"/>
<polygon fill="black" stroke="black" points="1994.5,-191.62 1991,-181.62 1987.5,-191.62 1994.5,-191.62"/>
</g>
<!-- 4/1 -->
<g id="node51" class="node">
<title>4/1</title>
<ellipse fill="none" stroke="black" cx="2231" cy="-162" rx="27" ry="18"/>
<text text-anchor="middle" x="2231" y="-158.3" font-family="Times,serif" font-size="14.00">4/1</text>
</g>
<!-- 3/1&#45;&gt;4/1 -->
<g id="edge50" class="edge">
<title>3/1&#45;&gt;4/1</title>
<path fill="none" stroke="black" d="M2015.33,-225.9C2058.01,-213.46 2146.49,-187.65 2195.83,-173.26"/>
<polygon fill="black" stroke="black" points="2196.53,-176.7 2205.15,-170.54 2194.57,-169.98 2196.53,-176.7"/>
</g>
<!-- 5/4 -->
<g id="node38" class="node">
<title>5/4</title>
<ellipse fill="none" stroke="black" cx="1331" cy="-90" rx="27" ry="18"/>
<text text-anchor="middle" x="1331" y="-86.3" font-family="Times,serif" font-size="14.00">5/4</text>
</g>
<!-- 4/3&#45;&gt;5/4 -->
<g id="edge37" class="edge">
<title>4/3&#45;&gt;5/4</title>
<path fill="none" stroke="black" d="M1427.32,-149.13C1408.88,-138 1381.08,-121.22 1360.08,-108.55"/>
<polygon fill="black" stroke="black" points="1362.05,-105.65 1351.68,-103.48 1358.44,-111.64 1362.05,-105.65"/>
</g>
<!-- 7/5 -->
<g id="node39" class="node">
<title>7/5</title>
<ellipse fill="none" stroke="black" cx="1447" cy="-90" rx="27" ry="18"/>
<text text-anchor="middle" x="1447" y="-86.3" font-family="Times,serif" font-size="14.00">7/5</text>
</g>
<!-- 4/3&#45;&gt;7/5 -->
<g id="edge38" class="edge">
<title>4/3&#45;&gt;7/5</title>
<path fill="none" stroke="black" d="M1447,-143.7C1447,-136.41 1447,-127.73 1447,-119.54"/>
<polygon fill="black" stroke="black" points="1450.5,-119.62 1447,-109.62 1443.5,-119.62 1450.5,-119.62"/>
</g>
<!-- 8/5 -->
<g id="node44" class="node">
<title>8/5</title>
<ellipse fill="none" stroke="black" cx="1607" cy="-90" rx="27" ry="18"/>
<text text-anchor="middle" x="1607" y="-86.3" font-family="Times,serif" font-size="14.00">8/5</text>
</g>
<!-- 5/3&#45;&gt;8/5 -->
<g id="edge43" class="edge">
<title>5/3&#45;&gt;8/5</title>
<path fill="none" stroke="black" d="M1607,-143.7C1607,-136.41 1607,-127.73 1607,-119.54"/>
<polygon fill="black" stroke="black" points="1610.5,-119.62 1607,-109.62 1603.5,-119.62 1610.5,-119.62"/>
</g>
<!-- 7/4 -->
<g id="node45" class="node">
<title>7/4</title>
<ellipse fill="none" stroke="black" cx="1727" cy="-90" rx="27" ry="18"/>
<text text-anchor="middle" x="1727" y="-86.3" font-family="Times,serif" font-size="14.00">7/4</text>
</g>
<!-- 5/3&#45;&gt;7/4 -->
<g id="edge44" class="edge">
<title>5/3&#45;&gt;7/4</title>
<path fill="none" stroke="black" d="M1626.82,-149.44C1646.01,-138.24 1675.36,-121.12 1697.34,-108.3"/>
<polygon fill="black" stroke="black" points="1698.97,-111.4 1705.85,-103.34 1695.45,-105.35 1698.97,-111.4"/>
</g>
<!-- 6/5 -->
<g id="node40" class="node">
<title>6/5</title>
<ellipse fill="none" stroke="black" cx="1259" cy="-18" rx="27" ry="18"/>
<text text-anchor="middle" x="1259" y="-14.3" font-family="Times,serif" font-size="14.00">6/5</text>
</g>
<!-- 5/4&#45;&gt;6/5 -->
<g id="edge39" class="edge">
<title>5/4&#45;&gt;6/5</title>
<path fill="none" stroke="black" d="M1316.08,-74.5C1306.23,-64.92 1293.14,-52.19 1281.97,-41.34"/>
<polygon fill="black" stroke="black" points="1284.59,-39 1274.98,-34.54 1279.71,-44.02 1284.59,-39"/>
</g>
<!-- 9/7 -->
<g id="node41" class="node">
<title>9/7</title>
<ellipse fill="none" stroke="black" cx="1331" cy="-18" rx="27" ry="18"/>
<text text-anchor="middle" x="1331" y="-14.3" font-family="Times,serif" font-size="14.00">9/7</text>
</g>
<!-- 5/4&#45;&gt;9/7 -->
<g id="edge40" class="edge">
<title>5/4&#45;&gt;9/7</title>
<path fill="none" stroke="black" d="M1331,-71.7C1331,-64.41 1331,-55.73 1331,-47.54"/>
<polygon fill="black" stroke="black" points="1334.5,-47.62 1331,-37.62 1327.5,-47.62 1334.5,-47.62"/>
</g>
<!-- 11/8 -->
<g id="node42" class="node">
<title>11/8</title>
<ellipse fill="none" stroke="black" cx="1407" cy="-18" rx="31.4" ry="18"/>
<text text-anchor="middle" x="1407" y="-14.3" font-family="Times,serif" font-size="14.00">11/8</text>
</g>
<!-- 7/5&#45;&gt;11/8 -->
<g id="edge41" class="edge">
<title>7/5&#45;&gt;11/8</title>
<path fill="none" stroke="black" d="M1437.72,-72.76C1433.09,-64.67 1427.38,-54.66 1422.14,-45.49"/>
<polygon fill="black" stroke="black" points="1425.26,-43.89 1417.26,-36.95 1419.18,-47.37 1425.26,-43.89"/>
</g>
<!-- 10/7 -->
<g id="node43" class="node">
<title>10/7</title>
<ellipse fill="none" stroke="black" cx="1487" cy="-18" rx="31.4" ry="18"/>
<text text-anchor="middle" x="1487" y="-14.3" font-family="Times,serif" font-size="14.00">10/7</text>
</g>
<!-- 7/5&#45;&gt;10/7 -->
<g id="edge42" class="edge">
<title>7/5&#45;&gt;10/7</title>
<path fill="none" stroke="black" d="M1456.28,-72.76C1460.91,-64.67 1466.62,-54.66 1471.86,-45.49"/>
<polygon fill="black" stroke="black" points="1474.82,-47.37 1476.74,-36.95 1468.74,-43.89 1474.82,-47.37"/>
</g>
<!-- 11/7 -->
<g id="node46" class="node">
<title>11/7</title>
<ellipse fill="none" stroke="black" cx="1567" cy="-18" rx="31.4" ry="18"/>
<text text-anchor="middle" x="1567" y="-14.3" font-family="Times,serif" font-size="14.00">11/7</text>
</g>
<!-- 8/5&#45;&gt;11/7 -->
<g id="edge45" class="edge">
<title>8/5&#45;&gt;11/7</title>
<path fill="none" stroke="black" d="M1597.72,-72.76C1593.09,-64.67 1587.38,-54.66 1582.14,-45.49"/>
<polygon fill="black" stroke="black" points="1585.26,-43.89 1577.26,-36.95 1579.18,-47.37 1585.26,-43.89"/>
</g>
<!-- 13/8 -->
<g id="node47" class="node">
<title>13/8</title>
<ellipse fill="none" stroke="black" cx="1647" cy="-18" rx="31.4" ry="18"/>
<text text-anchor="middle" x="1647" y="-14.3" font-family="Times,serif" font-size="14.00">13/8</text>
</g>
<!-- 8/5&#45;&gt;13/8 -->
<g id="edge46" class="edge">
<title>8/5&#45;&gt;13/8</title>
<path fill="none" stroke="black" d="M1616.28,-72.76C1620.91,-64.67 1626.62,-54.66 1631.86,-45.49"/>
<polygon fill="black" stroke="black" points="1634.82,-47.37 1636.74,-36.95 1628.74,-43.89 1634.82,-47.37"/>
</g>
<!-- 12/7 -->
<g id="node48" class="node">
<title>12/7</title>
<ellipse fill="none" stroke="black" cx="1727" cy="-18" rx="31.4" ry="18"/>
<text text-anchor="middle" x="1727" y="-14.3" font-family="Times,serif" font-size="14.00">12/7</text>
</g>
<!-- 7/4&#45;&gt;12/7 -->
<g id="edge47" class="edge">
<title>7/4&#45;&gt;12/7</title>
<path fill="none" stroke="black" d="M1727,-71.7C1727,-64.41 1727,-55.73 1727,-47.54"/>
<polygon fill="black" stroke="black" points="1730.5,-47.62 1727,-37.62 1723.5,-47.62 1730.5,-47.62"/>
</g>
<!-- 9/5 -->
<g id="node49" class="node">
<title>9/5</title>
<ellipse fill="none" stroke="black" cx="1803" cy="-18" rx="27" ry="18"/>
<text text-anchor="middle" x="1803" y="-14.3" font-family="Times,serif" font-size="14.00">9/5</text>
</g>
<!-- 7/4&#45;&gt;9/5 -->
<g id="edge48" class="edge">
<title>7/4&#45;&gt;9/5</title>
<path fill="none" stroke="black" d="M1742.38,-74.83C1752.99,-65.06 1767.3,-51.88 1779.35,-40.78"/>
<polygon fill="black" stroke="black" points="1781.55,-43.52 1786.53,-34.17 1776.8,-38.37 1781.55,-43.52"/>
</g>
<!-- 7/3 -->
<g id="node52" class="node">
<title>7/3</title>
<ellipse fill="none" stroke="black" cx="1951" cy="-90" rx="27" ry="18"/>
<text text-anchor="middle" x="1951" y="-86.3" font-family="Times,serif" font-size="14.00">7/3</text>
</g>
<!-- 5/2&#45;&gt;7/3 -->
<g id="edge51" class="edge">
<title>5/2&#45;&gt;7/3</title>
<path fill="none" stroke="black" d="M1981.72,-144.76C1977.03,-136.55 1971.21,-126.37 1965.91,-117.09"/>
<polygon fill="black" stroke="black" points="1968.98,-115.41 1960.98,-108.46 1962.9,-118.88 1968.98,-115.41"/>
</g>
<!-- 8/3 -->
<g id="node53" class="node">
<title>8/3</title>
<ellipse fill="none" stroke="black" cx="2031" cy="-90" rx="27" ry="18"/>
<text text-anchor="middle" x="2031" y="-86.3" font-family="Times,serif" font-size="14.00">8/3</text>
</g>
<!-- 5/2&#45;&gt;8/3 -->
<g id="edge52" class="edge">
<title>5/2&#45;&gt;8/3</title>
<path fill="none" stroke="black" d="M2000.28,-144.76C2004.97,-136.55 2010.79,-126.37 2016.09,-117.09"/>
<polygon fill="black" stroke="black" points="2019.1,-118.88 2021.02,-108.46 2013.02,-115.41 2019.1,-118.88"/>
</g>
<!-- 7/2 -->
<g id="node58" class="node">
<title>7/2</title>
<ellipse fill="none" stroke="black" cx="2231" cy="-90" rx="27" ry="18"/>
<text text-anchor="middle" x="2231" y="-86.3" font-family="Times,serif" font-size="14.00">7/2</text>
</g>
<!-- 4/1&#45;&gt;7/2 -->
<g id="edge57" class="edge">
<title>4/1&#45;&gt;7/2</title>
<path fill="none" stroke="black" d="M2231,-143.7C2231,-136.41 2231,-127.73 2231,-119.54"/>
<polygon fill="black" stroke="black" points="2234.5,-119.62 2231,-109.62 2227.5,-119.62 2234.5,-119.62"/>
</g>
<!-- 5/1 -->
<g id="node59" class="node">
<title>5/1</title>
<ellipse fill="none" stroke="black" cx="2347" cy="-90" rx="27" ry="18"/>
<text text-anchor="middle" x="2347" y="-86.3" font-family="Times,serif" font-size="14.00">5/1</text>
</g>
<!-- 4/1&#45;&gt;5/1 -->
<g id="edge58" class="edge">
<title>4/1&#45;&gt;5/1</title>
<path fill="none" stroke="black" d="M2250.68,-149.13C2269.12,-138 2296.92,-121.22 2317.92,-108.55"/>
<polygon fill="black" stroke="black" points="2319.56,-111.64 2326.32,-103.48 2315.95,-105.65 2319.56,-111.64"/>
</g>
<!-- 9/4 -->
<g id="node54" class="node">
<title>9/4</title>
<ellipse fill="none" stroke="black" cx="1875" cy="-18" rx="27" ry="18"/>
<text text-anchor="middle" x="1875" y="-14.3" font-family="Times,serif" font-size="14.00">9/4</text>
</g>
<!-- 7/3&#45;&gt;9/4 -->
<g id="edge53" class="edge">
<title>7/3&#45;&gt;9/4</title>
<path fill="none" stroke="black" d="M1935.62,-74.83C1925.01,-65.06 1910.7,-51.88 1898.65,-40.78"/>
<polygon fill="black" stroke="black" points="1901.2,-38.37 1891.47,-34.17 1896.45,-43.52 1901.2,-38.37"/>
</g>
<!-- 12/5 -->
<g id="node55" class="node">
<title>12/5</title>
<ellipse fill="none" stroke="black" cx="1951" cy="-18" rx="31.4" ry="18"/>
<text text-anchor="middle" x="1951" y="-14.3" font-family="Times,serif" font-size="14.00">12/5</text>
</g>
<!-- 7/3&#45;&gt;12/5 -->
<g id="edge54" class="edge">
<title>7/3&#45;&gt;12/5</title>
<path fill="none" stroke="black" d="M1951,-71.7C1951,-64.41 1951,-55.73 1951,-47.54"/>
<polygon fill="black" stroke="black" points="1954.5,-47.62 1951,-37.62 1947.5,-47.62 1954.5,-47.62"/>
</g>
<!-- 13/5 -->
<g id="node56" class="node">
<title>13/5</title>
<ellipse fill="none" stroke="black" cx="2031" cy="-18" rx="31.4" ry="18"/>
<text text-anchor="middle" x="2031" y="-14.3" font-family="Times,serif" font-size="14.00">13/5</text>
</g>
<!-- 8/3&#45;&gt;13/5 -->
<g id="edge55" class="edge">
<title>8/3&#45;&gt;13/5</title>
<path fill="none" stroke="black" d="M2031,-71.7C2031,-64.41 2031,-55.73 2031,-47.54"/>
<polygon fill="black" stroke="black" points="2034.5,-47.62 2031,-37.62 2027.5,-47.62 2034.5,-47.62"/>
</g>
<!-- 11/4 -->
<g id="node57" class="node">
<title>11/4</title>
<ellipse fill="none" stroke="black" cx="2111" cy="-18" rx="31.4" ry="18"/>
<text text-anchor="middle" x="2111" y="-14.3" font-family="Times,serif" font-size="14.00">11/4</text>
</g>
<!-- 8/3&#45;&gt;11/4 -->
<g id="edge56" class="edge">
<title>8/3&#45;&gt;11/4</title>
<path fill="none" stroke="black" d="M2046.81,-75.17C2057.98,-65.39 2073.19,-52.09 2086,-40.88"/>
<polygon fill="black" stroke="black" points="2088.04,-43.74 2093.26,-34.52 2083.43,-38.47 2088.04,-43.74"/>
</g>
<!-- 10/3 -->
<g id="node60" class="node">
<title>10/3</title>
<ellipse fill="none" stroke="black" cx="2191" cy="-18" rx="31.4" ry="18"/>
<text text-anchor="middle" x="2191" y="-14.3" font-family="Times,serif" font-size="14.00">10/3</text>
</g>
<!-- 7/2&#45;&gt;10/3 -->
<g id="edge59" class="edge">
<title>7/2&#45;&gt;10/3</title>
<path fill="none" stroke="black" d="M2221.72,-72.76C2217.09,-64.67 2211.38,-54.66 2206.14,-45.49"/>
<polygon fill="black" stroke="black" points="2209.26,-43.89 2201.26,-36.95 2203.18,-47.37 2209.26,-43.89"/>
</g>
<!-- 11/3 -->
<g id="node61" class="node">
<title>11/3</title>
<ellipse fill="none" stroke="black" cx="2271" cy="-18" rx="31.4" ry="18"/>
<text text-anchor="middle" x="2271" y="-14.3" font-family="Times,serif" font-size="14.00">11/3</text>
</g>
<!-- 7/2&#45;&gt;11/3 -->
<g id="edge60" class="edge">
<title>7/2&#45;&gt;11/3</title>
<path fill="none" stroke="black" d="M2240.28,-72.76C2244.91,-64.67 2250.62,-54.66 2255.86,-45.49"/>
<polygon fill="black" stroke="black" points="2258.82,-47.37 2260.74,-36.95 2252.74,-43.89 2258.82,-47.37"/>
</g>
<!-- 9/2 -->
<g id="node62" class="node">
<title>9/2</title>
<ellipse fill="none" stroke="black" cx="2347" cy="-18" rx="27" ry="18"/>
<text text-anchor="middle" x="2347" y="-14.3" font-family="Times,serif" font-size="14.00">9/2</text>
</g>
<!-- 5/1&#45;&gt;9/2 -->
<g id="edge61" class="edge">
<title>5/1&#45;&gt;9/2</title>
<path fill="none" stroke="black" d="M2347,-71.7C2347,-64.41 2347,-55.73 2347,-47.54"/>
<polygon fill="black" stroke="black" points="2350.5,-47.62 2347,-37.62 2343.5,-47.62 2350.5,-47.62"/>
</g>
<!-- 6/1 -->
<g id="node63" class="node">
<title>6/1</title>
<ellipse fill="none" stroke="black" cx="2419" cy="-18" rx="27" ry="18"/>
<text text-anchor="middle" x="2419" y="-14.3" font-family="Times,serif" font-size="14.00">6/1</text>
</g>
<!-- 5/1&#45;&gt;6/1 -->
<g id="edge62" class="edge">
<title>5/1&#45;&gt;6/1</title>
<path fill="none" stroke="black" d="M2361.92,-74.5C2371.77,-64.92 2384.86,-52.19 2396.03,-41.34"/>
<polygon fill="black" stroke="black" points="2398.29,-44.02 2403.02,-34.54 2393.41,-39 2398.29,-44.02"/>
</g>
</g>
</svg>
